<?xml version="1.0" standalone="no"?>
<!DOCTYPE svg PUBLIC "-//W3C//DTD SVG 20010904//EN"
 "http://www.w3.org/TR/2001/REC-SVG-20010904/DTD/svg10.dtd">
<svg version="1.0" xmlns="http://www.w3.org/2000/svg"
 width="200.000000pt" height="200.000000pt" viewBox="0 0 200.000000 200.000000"
 preserveAspectRatio="xMidYMid meet">

<g transform="translate(0.000000,200.000000) scale(0.100000,-0.100000)"
fill="#000000" stroke="none">
<path d="M827 1985 c-211 -40 -383 -131 -532 -280 -203 -203 -306 -468 -292
-750 24 -451 326 -817 767 -928 115 -29 329 -30 445 -3 383 89 672 378 761
761 27 116 26 330 -3 445 -93 370 -372 650 -738 741 -107 27 -304 34 -408 14z
m303 -156 c93 -15 204 -54 290 -102 102 -57 250 -205 307 -307 149 -267 149
-573 0 -840 -57 -102 -205 -250 -307 -307 -267 -149 -573 -149 -840 0 -102 57
-250 205 -307 307 -149 267 -149 573 0 840 57 102 205 250 307 307 171 96 367
132 550 102z"/>
<path d="M460 1005 c0 -195 3 -355 8 -355 15 1 535 345 535 354 -1 8 -527 356
-539 356 -2 0 -4 -160 -4 -355z"/>
<path d="M1120 1000 l0 -361 78 3 77 3 3 358 2 357 -80 0 -80 0 0 -360z"/>
<path d="M1380 1000 l0 -361 78 3 77 3 3 358 2 357 -80 0 -80 0 0 -360z"/>
</g>
</svg>
