<?xml version="1.0" standalone="no"?>
<!DOCTYPE svg PUBLIC "-//W3C//DTD SVG 20010904//EN"
 "http://www.w3.org/TR/2001/REC-SVG-20010904/DTD/svg10.dtd">
<svg version="1.0" xmlns="http://www.w3.org/2000/svg"
 width="225.000000pt" height="225.000000pt" viewBox="0 0 225.000000 225.000000"
 preserveAspectRatio="xMidYMid meet">

<g transform="translate(0.000000,225.000000) scale(0.100000,-0.100000)"
fill="#000000" stroke="none">
<path d="M948 2234 c-408 -63 -756 -357 -888 -751 -134 -402 -34 -838 263
-1142 439 -450 1160 -452 1600 -4 95 96 150 173 207 288 338 682 -85 1497
-837 1610 -118 18 -228 18 -345 -1z m366 -180 c403 -77 717 -426 754 -840 17
-179 -15 -350 -93 -509 -231 -468 -801 -661 -1270 -430 -468 231 -661 801
-430 1270 191 386 608 591 1039 509z"/>
<path d="M1478 1438 l-3 -33 -142 -5 -143 -5 -137 -205 -138 -205 -177 -3
-178 -2 0 -65 0 -65 213 0 214 0 139 208 139 207 107 3 107 3 3 -36 3 -35 98
65 c53 36 97 67 97 70 0 4 -148 106 -187 128 -8 5 -13 -3 -15 -25z"/>
<path d="M560 1335 l0 -65 175 0 175 0 29 -40 28 -40 37 55 c20 30 36 59 36
65 0 6 -12 28 -26 50 l-27 40 -213 0 -214 0 0 -65z"/>
<path d="M1176 1005 c-20 -30 -36 -59 -36 -65 0 -6 12 -28 26 -50 l26 -39 142
-3 141 -3 5 -33 5 -32 98 65 c53 36 97 67 97 70 0 3 -44 34 -97 70 l-98 65 -3
-35 -3 -35 -105 0 -104 0 -29 40 -28 40 -37 -55z"/>
</g>
</svg>
