<?xml version="1.0" standalone="no"?>
<!DOCTYPE svg PUBLIC "-//W3C//DTD SVG 20010904//EN"
 "http://www.w3.org/TR/2001/REC-SVG-20010904/DTD/svg10.dtd">
<svg version="1.0" xmlns="http://www.w3.org/2000/svg"
 width="225.000000pt" height="225.000000pt" viewBox="0 0 225.000000 225.000000"
 preserveAspectRatio="xMidYMid meet">

<g transform="translate(0.000000,225.000000) scale(0.100000,-0.100000)"
fill="#000000" stroke="none">
<path d="M982 2240 c-167 -24 -339 -87 -474 -175 -104 -69 -272 -241 -336
-344 -270 -440 -215 -994 135 -1362 333 -350 828 -453 1267 -264 177 77 380
247 484 405 179 271 233 594 152 909 -102 399 -435 722 -838 812 -101 22 -299
32 -390 19z m-366 -543 c602 -410 803 -549 807 -560 2 -6 2 -18 -1 -25 -3 -10
-575 -406 -805 -557 -56 -37 -58 -37 -77 -20 -20 18 -20 32 -20 588 0 517 2
572 17 589 21 24 23 23 79 -15z m1144 -572 l0 -605 -130 0 -130 0 0 605 0 605
130 0 130 0 0 -605z"/>
</g>
</svg>
